<svg width="128" height="20" viewBox="0 0 128 20" fill="none" xmlns="http://www.w3.org/2000/svg">
<path d="M19.3536 7.04257L13.358 6.1301L10.6778 0.440169C10.6046 0.284382 10.4841 0.158269 10.3354 0.0816118C9.96227 -0.111267 9.50887 0.0494654 9.32232 0.440169L6.64213 6.1301L0.646516 7.04257C0.481218 7.0673 0.330088 7.1489 0.214379 7.27254C0.0744931 7.4231 -0.00259025 7.62566 6.6464e-05 7.8357C0.00272317 8.04575 0.0849026 8.24609 0.228547 8.39272L4.56645 12.8215L3.5416 19.0753C3.51757 19.2207 3.53294 19.3703 3.58598 19.5071C3.63901 19.6439 3.72759 19.7624 3.84166 19.8492C3.95573 19.9359 4.09074 19.9875 4.23137 19.998C4.37199 20.0085 4.51262 19.9775 4.63729 19.9086L10 16.9561L15.3628 19.9086C15.5092 19.9902 15.6792 20.0174 15.8422 19.9877C16.2531 19.9135 16.5293 19.5055 16.4585 19.0753L15.4336 12.8215L19.7715 8.39272C19.8896 8.27156 19.9675 8.1133 19.9912 7.9402C20.0549 7.50746 19.7668 7.10686 19.3536 7.04257Z" fill="#FBBF25"/>
<path d="M46.3536 7.04257L40.358 6.1301L37.6778 0.440169C37.6046 0.284382 37.4841 0.158269 37.3354 0.0816118C36.9623 -0.111267 36.5089 0.0494654 36.3223 0.440169L33.6421 6.1301L27.6465 7.04257C27.4812 7.0673 27.3301 7.1489 27.2144 7.27254C27.0745 7.4231 26.9974 7.62566 27.0001 7.8357C27.0027 8.04575 27.0849 8.24609 27.2285 8.39272L31.5665 12.8215L30.5416 19.0753C30.5176 19.2207 30.5329 19.3703 30.586 19.5071C30.639 19.6439 30.7276 19.7624 30.8417 19.8492C30.9557 19.9359 31.0907 19.9875 31.2314 19.998C31.372 20.0085 31.5126 19.9775 31.6373 19.9086L37 16.9561L42.3628 19.9086C42.5092 19.9902 42.6792 20.0174 42.8422 19.9877C43.2531 19.9135 43.5293 19.5055 43.4585 19.0753L42.4336 12.8215L46.7715 8.39272C46.8896 8.27156 46.9675 8.1133 46.9912 7.9402C47.0549 7.50746 46.7668 7.10686 46.3536 7.04257Z" fill="#FBBF25"/>
<path d="M73.3536 7.04257L67.358 6.1301L64.6778 0.440169C64.6046 0.284382 64.4841 0.158269 64.3354 0.0816118C63.9623 -0.111267 63.5089 0.0494654 63.3223 0.440169L60.6421 6.1301L54.6465 7.04257C54.4812 7.0673 54.3301 7.1489 54.2144 7.27254C54.0745 7.4231 53.9974 7.62566 54.0001 7.8357C54.0027 8.04575 54.0849 8.24609 54.2285 8.39272L58.5665 12.8215L57.5416 19.0753C57.5176 19.2207 57.5329 19.3703 57.586 19.5071C57.639 19.6439 57.7276 19.7624 57.8417 19.8492C57.9557 19.9359 58.0907 19.9875 58.2314 19.998C58.372 20.0085 58.5126 19.9775 58.6373 19.9086L64 16.9561L69.3628 19.9086C69.5092 19.9902 69.6792 20.0174 69.8422 19.9877C70.2531 19.9135 70.5293 19.5055 70.4585 19.0753L69.4336 12.8215L73.7715 8.39272C73.8896 8.27156 73.9675 8.1133 73.9912 7.9402C74.0549 7.50746 73.7668 7.10686 73.3536 7.04257Z" fill="#FBBF25"/>
<path d="M100.354 7.04257L94.358 6.1301L91.6778 0.440169C91.6046 0.284382 91.4841 0.158269 91.3354 0.0816118C90.9623 -0.111267 90.5089 0.0494654 90.3223 0.440169L87.6421 6.1301L81.6465 7.04257C81.4812 7.0673 81.3301 7.1489 81.2144 7.27254C81.0745 7.4231 80.9974 7.62566 81.0001 7.8357C81.0027 8.04575 81.0849 8.24609 81.2285 8.39272L85.5665 12.8215L84.5416 19.0753C84.5176 19.2207 84.5329 19.3703 84.586 19.5071C84.639 19.6439 84.7276 19.7624 84.8417 19.8492C84.9557 19.9359 85.0907 19.9875 85.2314 19.998C85.372 20.0085 85.5126 19.9775 85.6373 19.9086L91 16.9561L96.3628 19.9086C96.5092 19.9902 96.6792 20.0174 96.8422 19.9877C97.2531 19.9135 97.5293 19.5055 97.4585 19.0753L96.4336 12.8215L100.772 8.39272C100.89 8.27156 100.968 8.1133 100.991 7.9402C101.055 7.50746 100.767 7.10686 100.354 7.04257Z" fill="#FBBF25"/>
<path d="M127.354 7.04257L121.358 6.1301L118.678 0.440169C118.605 0.284382 118.484 0.158269 118.335 0.0816118C117.962 -0.111267 117.509 0.0494654 117.322 0.440169L114.642 6.1301L108.647 7.04257C108.481 7.0673 108.33 7.1489 108.214 7.27254C108.074 7.4231 107.997 7.62566 108 7.8357C108.003 8.04575 108.085 8.24609 108.229 8.39272L112.566 12.8215L111.542 19.0753C111.518 19.2207 111.533 19.3703 111.586 19.5071C111.639 19.6439 111.728 19.7624 111.842 19.8492C111.956 19.9359 112.091 19.9875 112.231 19.998C112.372 20.0085 112.513 19.9775 112.637 19.9086L118 16.9561L123.363 19.9086C123.509 19.9902 123.679 20.0174 123.842 19.9877C124.253 19.9135 124.529 19.5055 124.458 19.0753L123.434 12.8215L127.772 8.39272C127.89 8.27156 127.968 8.1133 127.991 7.9402C128.055 7.50746 127.767 7.10686 127.354 7.04257Z" fill="#FBBF25"/>
</svg>
